<svg xmlns="http://www.w3.org/2000/svg" version="1.1" xmlns:xlink="http://www.w3.org/1999/xlink" xmlns:svgjs="http://svgjs.com/svgjs" width="512" height="512" x="0" y="0" viewBox="0 0 504.5 504.5" style="enable-background:new 0 0 512 512" xml:space="preserve" class=""><g><g xmlns="http://www.w3.org/2000/svg"><g fill="#b5cdff"><path d="m125.842 135.75h353.258v15h-353.258z" fill="#b5cdff" data-original="#b5cdff"></path><path d="m143.745 205.75h317.453v15h-317.453z" fill="#b5cdff" data-original="#b5cdff"></path><path d="m408.357 290.75h-84.857l-30 15h-133.77v-30h248.627c17.144 0 32.084-11.601 36.33-28.209l42.654-166.791h-381.321v-15h390.98c2.316 0 4.503 1.07 5.924 2.9s1.916 4.214 1.343 6.458l-45.046 176.148c-5.947 23.254-26.862 39.494-50.864 39.494z" fill="#b5cdff" data-original="#b5cdff"></path><path d="m304.11 170.75h212.457v15h-212.457z" transform="matrix(.152 -.988 .988 .152 171.905 556.801)" fill="#b5cdff" data-original="#b5cdff"></path><path d="m237.65 170.75h210.274v15h-210.274z" transform="matrix(.051 -.999 .999 .051 147.274 511.493)" fill="#b5cdff" data-original="#b5cdff"></path><path d="m267.736 73.113h15v210.275h-15z" transform="matrix(.999 -.051 .051 .999 -8.75 14.299)" fill="#b5cdff" data-original="#b5cdff"></path><path d="m200.185 72.021h15v212.458h-15z" transform="matrix(.988 -.152 .152 .988 -24.635 33.566)" fill="#b5cdff" data-original="#b5cdff"></path></g><path d="m165 440.75-15 30 15 30c16.569 0 30-13.431 30-30s-13.431-30-30-30z" fill="#234b72" data-original="#234b72"></path><path d="m135 470.75c0 16.569 13.431 30 30 30v-60c-16.569 0-30 13.431-30 30z" fill="#375798" data-original="#375798"></path><path d="m422 440.75-15 30 15 30c16.569 0 30-13.431 30-30s-13.431-30-30-30z" fill="#234b72" data-original="#234b72"></path><path d="m392 470.75c0 16.569 13.431 30 30 30v-60c-16.569 0-30 13.431-30 30z" fill="#375798" data-original="#375798"></path><circle cx="165" cy="470.75" fill="#0e3e4c" r="7.5" data-original="#0e3e4c"></circle><circle cx="422" cy="470.75" fill="#0e3e4c" r="7.5" data-original="#0e3e4c"></circle><path d="m452 380.75h-30v30h30c8.284 0 15-6.716 15-15s-6.716-15-15-15z" fill="#a0b4de" data-original="#a0b4de"></path><path d="m263.5 320.75h30c16.568 0 30-13.432 30-30h-30z" fill="#a0b4de" data-original="#a0b4de"></path><path d="m422 380.75h-302c-8.271 0-15-6.729-15-15 0-5.393 2.926-10.398 7.646-13.07l56.314-31.93h94.54c16.568 0 30-13.432 30-30h-116.851l-58.979-230.6c-3.423-13.406-10.338-25.176-19.62-34.45h-21.216v21.216c5.568 5.562 9.716 12.621 11.77 20.662l59.025 230.779-49.771 28.22c-14.099 7.983-22.858 22.992-22.858 39.173 0 24.813 20.187 45 45 45h302c8.284 0 15-6.716 15-15s-6.716-15-15-15z" fill="#b5cdff" data-original="#b5cdff"></path><path d="m45 3.75h-30c-8.284 0-15 6.716-15 15s6.716 15 15 15h30c12.277 0 23.607 4.948 31.834 13.166l21.216-21.216c-13.711-13.7-32.592-21.95-53.05-21.95z" fill="#ff4c3b" data-original="#ff4c3b"></path></g></g></svg>